<svg width="29" height="28" viewBox="0 0 29 28" fill="none" xmlns="http://www.w3.org/2000/svg">
<path d="M20.45 1.25H8.55C6.16978 1.25 4.97967 1.25 4.07054 1.71322C3.27085 2.12068 2.62068 2.77085 2.21322 3.57054C1.75 4.47967 1.75 5.66978 1.75 8.05V19.95C1.75 22.3302 1.75 23.5203 2.21322 24.4295C2.62068 25.2291 3.27085 25.8793 4.07054 26.2868C4.97967 26.75 6.16978 26.75 8.55 26.75H20.45C22.8302 26.75 24.0203 26.75 24.9295 26.2868C25.7291 25.8793 26.3793 25.2291 26.7868 24.4295C27.25 23.5203 27.25 22.3302 27.25 19.95V8.05C27.25 5.66978 27.25 4.47967 26.7868 3.57054C26.3793 2.77085 25.7291 2.12068 24.9295 1.71322C24.0203 1.25 22.8302 1.25 20.45 1.25Z" fill="#FEE8E5"/>
<path d="M22.2917 21.9333L6.70833 21.9333M8.55 1.25H20.45C22.8302 1.25 24.0203 1.25 24.9295 1.71322C25.7291 2.12068 26.3793 2.77085 26.7868 3.57054C27.25 4.47967 27.25 5.66978 27.25 8.05V19.95C27.25 22.3302 27.25 23.5203 26.7868 24.4295C26.3793 25.2291 25.7291 25.8793 24.9295 26.2868C24.0203 26.75 22.8302 26.75 20.45 26.75H8.55C6.16978 26.75 4.97967 26.75 4.07054 26.2868C3.27085 25.8793 2.62068 25.2291 2.21322 24.4295C1.75 23.5203 1.75 22.3302 1.75 19.95V8.05C1.75 5.66978 1.75 4.47967 2.21322 3.57054C2.62068 2.77085 3.27085 2.12068 4.07054 1.71322C4.97967 1.25 6.16978 1.25 8.55 1.25Z" stroke="#E35F4F" stroke-width="2" stroke-linecap="round" stroke-linejoin="round"/>
</svg>
