<svg width="31" height="32" viewBox="0 0 31 32" fill="none" xmlns="http://www.w3.org/2000/svg">
<path d="M16.0075 2.08681C15.8217 1.99389 15.7287 1.94742 15.6313 1.92914C15.5449 1.91294 15.4564 1.91294 15.37 1.92914C15.2726 1.94742 15.1796 1.99389 14.9938 2.08681L1.33398 8.91672L14.9938 15.7466C15.1796 15.8396 15.2726 15.886 15.37 15.9043C15.4564 15.9205 15.5449 15.9205 15.6313 15.9043C15.7287 15.886 15.8217 15.8396 16.0075 15.7466L29.6673 8.91672L16.0075 2.08681Z" fill="#FEE8E5"/>
<path d="M8.41732 12.4584L1.33398 16.0001L14.9938 22.83C15.1796 22.9229 15.2726 22.9693 15.37 22.9876C15.4564 23.0038 15.5449 23.0038 15.6313 22.9876C15.7287 22.9693 15.8217 22.9229 16.0075 22.83L29.6673 16.0001L22.584 12.4584M8.41732 19.5417L1.33398 23.0834L14.9938 29.9133C15.1796 30.0062 15.2726 30.0527 15.37 30.071C15.4564 30.0872 15.5449 30.0872 15.6313 30.071C15.7287 30.0527 15.8217 30.0062 16.0075 29.9133L29.6673 23.0834L22.584 19.5417M1.33398 8.91672L14.9938 2.08681C15.1796 1.99389 15.2726 1.94742 15.37 1.92914C15.4564 1.91294 15.5449 1.91294 15.6313 1.92914C15.7287 1.94742 15.8217 1.99389 16.0075 2.08681L29.6673 8.91672L16.0075 15.7466C15.8217 15.8396 15.7287 15.886 15.6313 15.9043C15.5449 15.9205 15.4564 15.9205 15.37 15.9043C15.2726 15.886 15.1796 15.8396 14.9938 15.7466L1.33398 8.91672Z" stroke="#E35F4F" stroke-width="2" stroke-linecap="round" stroke-linejoin="round"/>
</svg>
