<svg width="27" height="26" viewBox="0 0 27 26" fill="none" xmlns="http://www.w3.org/2000/svg">
<path d="M1.5 8.55032C1.5 8.2242 1.5 8.06114 1.53684 7.90769C1.5695 7.77164 1.62337 7.64158 1.69648 7.52229C1.77894 7.38773 1.89424 7.27243 2.12484 7.04183L7.54183 1.62484C7.77243 1.39424 7.88773 1.27894 8.02229 1.19648C8.14158 1.12337 8.27164 1.0695 8.40769 1.03684C8.56114 1 8.7242 1 9.05032 1H24.4333C24.8067 1 24.9934 1 25.136 1.07266C25.2614 1.13658 25.3634 1.23856 25.4273 1.36401C25.5 1.50661 25.5 1.6933 25.5 2.06667V17.4497C25.5 17.7758 25.5 17.9389 25.4632 18.0923C25.4305 18.2284 25.3766 18.3584 25.3035 18.4777C25.2211 18.6123 25.1058 18.7276 24.8752 18.9582L19.4582 24.3752C19.2276 24.6058 19.1123 24.7211 18.9777 24.8035C18.8584 24.8766 18.7284 24.9305 18.5923 24.9632C18.4389 25 18.2758 25 17.9497 25H2.56667C2.1933 25 2.00661 25 1.86401 24.9273C1.73856 24.8634 1.63658 24.7614 1.57266 24.636C1.5 24.4934 1.5 24.3067 1.5 23.9333V8.55032Z" fill="#FEE8E5"/>
<path d="M2.16667 7.66667H18.8333M18.8333 7.66667V24.3333M18.8333 7.66667L24.8333 1.66667M25.5 17.4497V2.06667C25.5 1.6933 25.5 1.50661 25.4273 1.36401C25.3634 1.23856 25.2614 1.13658 25.136 1.07266C24.9934 1 24.8067 1 24.4333 1H9.05032C8.7242 1 8.56114 1 8.40769 1.03684C8.27164 1.0695 8.14158 1.12337 8.02229 1.19648C7.88773 1.27894 7.77243 1.39424 7.54183 1.62484L2.12484 7.04183C1.89424 7.27243 1.77894 7.38773 1.69648 7.52229C1.62337 7.64158 1.5695 7.77164 1.53684 7.90769C1.5 8.06114 1.5 8.2242 1.5 8.55032V23.9333C1.5 24.3067 1.5 24.4934 1.57266 24.636C1.63658 24.7614 1.73856 24.8634 1.86401 24.9273C2.00661 25 2.1933 25 2.56667 25H17.9497C18.2758 25 18.4389 25 18.5923 24.9632C18.7284 24.9305 18.8584 24.8766 18.9777 24.8035C19.1123 24.7211 19.2276 24.6058 19.4582 24.3752L24.8752 18.9582C25.1058 18.7276 25.2211 18.6123 25.3035 18.4777C25.3766 18.3584 25.4305 18.2284 25.4632 18.0923C25.5 17.9389 25.5 17.7758 25.5 17.4497Z" stroke="#E35F4F" stroke-width="2" stroke-linecap="round" stroke-linejoin="round"/>
</svg>
