<svg width="99" height="31" viewBox="0 0 99 31" fill="none" xmlns="http://www.w3.org/2000/svg">
<path d="M1.976 25V6.8H5.694L14.586 19.02V6.8H18.122V25H14.586L5.538 12.546V25H1.976ZM26.9474 25.312C25.6647 25.312 24.5294 25.026 23.5414 24.454C22.5534 23.8647 21.7734 23.0587 21.2014 22.036C20.6467 21.0133 20.3694 19.8347 20.3694 18.5C20.3694 17.1653 20.6554 15.9867 21.2274 14.964C21.8167 13.9413 22.614 13.144 23.6194 12.572C24.642 11.9827 25.812 11.688 27.1294 11.688C28.2734 11.688 29.322 11.9913 30.2754 12.598C31.246 13.1873 32.0174 14.0627 32.5894 15.224C33.1787 16.368 33.4734 17.7633 33.4734 19.41H23.6194L23.9314 19.098C23.9314 19.7393 24.0874 20.3027 24.3994 20.788C24.7287 21.256 25.1447 21.62 25.6474 21.88C26.1674 22.1227 26.722 22.244 27.3114 22.244C28.022 22.244 28.6027 22.0967 29.0534 21.802C29.504 21.49 29.8507 21.0913 30.0934 20.606L33.1614 21.802C32.7974 22.53 32.3207 23.1627 31.7314 23.7C31.1594 24.22 30.4747 24.6187 29.6774 24.896C28.88 25.1733 27.97 25.312 26.9474 25.312ZM24.1134 17.174L23.8014 16.862H30.0674L29.7814 17.174C29.7814 16.55 29.634 16.056 29.3394 15.692C29.0447 15.3107 28.6807 15.0333 28.2474 14.86C27.8314 14.6867 27.424 14.6 27.0254 14.6C26.6267 14.6 26.202 14.6867 25.7514 14.86C25.3007 15.0333 24.9107 15.3107 24.5814 15.692C24.2694 16.056 24.1134 16.55 24.1134 17.174ZM33.2688 25L38.5988 17.564L42.3168 12H46.3728L41.1988 19.254L37.3768 25H33.2688ZM42.6028 25L38.8328 19.254L33.6068 12H37.6628L41.3808 17.564L46.6848 25H42.6028ZM56.4903 25L56.2823 22.608V12H59.7143V25H56.4903ZM47.6763 18.656V12H51.1083V18.656H47.6763ZM51.1083 18.656C51.1083 19.5227 51.2036 20.2073 51.3943 20.71C51.6023 21.1953 51.8883 21.5507 52.2523 21.776C52.6336 21.984 53.0583 22.088 53.5263 22.088C54.4276 22.1053 55.1123 21.8367 55.5803 21.282C56.0483 20.71 56.2823 19.8867 56.2823 18.812H57.4523C57.4523 20.1987 57.2443 21.3773 56.8283 22.348C56.4123 23.3013 55.8403 24.038 55.1123 24.558C54.3843 25.0607 53.5263 25.312 52.5383 25.312C51.4983 25.312 50.6143 25.104 49.8863 24.688C49.1583 24.272 48.6036 23.6307 48.2223 22.764C47.8583 21.88 47.6763 20.7447 47.6763 19.358V18.656H51.1083ZM67.0296 25.312C66.1976 25.312 65.4176 25.1907 64.6896 24.948C63.9616 24.688 63.3203 24.324 62.7656 23.856C62.211 23.3707 61.7776 22.7813 61.4656 22.088L64.4036 20.736C64.6636 21.152 65.019 21.516 65.4696 21.828C65.9203 22.1227 66.4403 22.27 67.0296 22.27C67.6016 22.27 68.0436 22.192 68.3556 22.036C68.6676 21.8627 68.8236 21.62 68.8236 21.308C68.8236 20.996 68.6936 20.7707 68.4336 20.632C68.191 20.476 67.853 20.346 67.4196 20.242L66.2236 19.93C64.9756 19.6007 63.9876 19.0807 63.2596 18.37C62.549 17.642 62.1936 16.81 62.1936 15.874C62.1936 14.5393 62.6183 13.508 63.4676 12.78C64.3343 12.052 65.5563 11.688 67.1336 11.688C67.9483 11.688 68.7023 11.8093 69.3956 12.052C70.1063 12.2947 70.713 12.6327 71.2156 13.066C71.7183 13.4993 72.065 14.002 72.2556 14.574L69.4216 15.874C69.3003 15.5273 69.0056 15.25 68.5376 15.042C68.0696 14.8167 67.6016 14.704 67.1336 14.704C66.6656 14.704 66.3016 14.808 66.0416 15.016C65.799 15.2067 65.6776 15.4753 65.6776 15.822C65.6776 16.0473 65.799 16.238 66.0416 16.394C66.2843 16.5327 66.631 16.654 67.0816 16.758L68.7716 17.174C69.621 17.382 70.297 17.72 70.7996 18.188C71.3196 18.6387 71.6923 19.15 71.9176 19.722C72.1603 20.2767 72.2816 20.8227 72.2816 21.36C72.2816 22.14 72.0476 22.8333 71.5796 23.44C71.129 24.0293 70.505 24.4887 69.7076 24.818C68.9276 25.1473 68.035 25.312 67.0296 25.312ZM75.501 25.39C74.929 25.39 74.435 25.182 74.019 24.766C73.6203 24.35 73.421 23.856 73.421 23.284C73.421 22.7293 73.6203 22.244 74.019 21.828C74.435 21.412 74.929 21.204 75.501 21.204C76.073 21.204 76.5583 21.412 76.957 21.828C77.373 22.244 77.581 22.7293 77.581 23.284C77.581 23.856 77.373 24.35 76.957 24.766C76.5583 25.182 76.073 25.39 75.501 25.39Z" fill="white"/>
<path d="M87.5402 25L87.4362 22.374V18.422C87.4362 17.642 87.3495 16.9747 87.1762 16.42C87.0202 15.8653 86.7602 15.4407 86.3962 15.146C86.0495 14.834 85.5728 14.678 84.9662 14.678C84.4115 14.678 83.9088 14.7993 83.4582 15.042C83.0075 15.2847 82.6262 15.6573 82.3142 16.16L79.2982 15.12C79.5408 14.5653 79.8962 14.028 80.3642 13.508C80.8322 12.9707 81.4388 12.5373 82.1842 12.208C82.9468 11.8613 83.8742 11.688 84.9662 11.688C86.2835 11.688 87.3755 11.9393 88.2422 12.442C89.1262 12.9447 89.7762 13.6553 90.1922 14.574C90.6255 15.4753 90.8335 16.55 90.8162 17.798L90.7382 25H87.5402ZM83.9002 25.312C82.3402 25.312 81.1268 24.9653 80.2602 24.272C79.4108 23.5787 78.9862 22.5993 78.9862 21.334C78.9862 19.9473 79.4455 18.9073 80.3642 18.214C81.3002 17.5033 82.6088 17.148 84.2902 17.148H87.5922V19.696H85.4862C84.3595 19.696 83.5795 19.8347 83.1462 20.112C82.7128 20.372 82.4962 20.7447 82.4962 21.23C82.4962 21.6113 82.6695 21.9147 83.0162 22.14C83.3628 22.348 83.8482 22.452 84.4722 22.452C85.0442 22.452 85.5468 22.322 85.9802 22.062C86.4308 21.7847 86.7862 21.438 87.0462 21.022C87.3062 20.5887 87.4362 20.1467 87.4362 19.696H88.2682C88.2682 21.464 87.9302 22.842 87.2542 23.83C86.5955 24.818 85.4775 25.312 83.9002 25.312ZM93.2395 25V12H96.6715V25H93.2395ZM94.9555 9.894C94.4355 9.894 93.9761 9.70333 93.5775 9.322C93.1788 8.92333 92.9795 8.45533 92.9795 7.918C92.9795 7.38067 93.1788 6.92133 93.5775 6.54C93.9761 6.14133 94.4355 5.942 94.9555 5.942C95.4928 5.942 95.9521 6.14133 96.3335 6.54C96.7321 6.92133 96.9315 7.38067 96.9315 7.918C96.9315 8.45533 96.7321 8.92333 96.3335 9.322C95.9521 9.70333 95.4928 9.894 94.9555 9.894Z" fill="#838384"/>
</svg>
